<svg width="19" height="35" viewBox="0 0 19 35" fill="none" xmlns="http://www.w3.org/2000/svg">
<path d="M13.1135 -2.38419e-06H15.5135L9.21348 29.6C8.98014 30.6333 8.79681 31.5 8.66348 32.2C8.56348 32.6 8.44681 33.1 8.31348 33.7C8.21348 34.2667 8.13014 34.7 8.06348 35C7.83014 33.9 7.63014 32.9667 7.46348 32.2L7.06348 30.35L0.613477 -2.38419e-06H1.81348L1.91348 0.599999L5.26348 16.25L8.06348 29.4L14.1635 0.599999H13.5635L8.56348 24.25L8.36348 25.2L8.06348 26.6L7.76348 25.2L7.46348 23.9L7.41348 23.7L6.11348 17.5L6.41348 17.45L6.71348 17.4L8.06348 23.8L13.1135 -2.38419e-06ZM17.4791 33.45C17.6124 33.3167 17.7791 33.25 17.9791 33.25C18.1791 33.25 18.3458 33.3167 18.4791 33.45C18.6124 33.5833 18.6791 33.75 18.6791 33.95C18.6791 34.15 18.6124 34.3167 18.4791 34.45C18.3458 34.5833 18.1791 34.65 17.9791 34.65C17.7791 34.65 17.6124 34.5833 17.4791 34.45C17.3458 34.3167 17.2791 34.15 17.2791 33.95C17.2791 33.75 17.3458 33.5833 17.4791 33.45Z" fill="white"/>
</svg>
