<svg width="7" height="12" viewBox="0 0 7 12" fill="none" xmlns="http://www.w3.org/2000/svg">
<path d="M4.49631 0.799999H5.26431L3.24831 10.272C3.17365 10.6027 3.11498 10.88 3.07231 11.104C3.04031 11.232 3.00298 11.392 2.96031 11.584C2.92831 11.7653 2.90165 11.904 2.88031 12C2.80565 11.648 2.74165 11.3493 2.68831 11.104L2.56031 10.512L0.496313 0.799999H0.880313L0.912313 0.992L1.98431 6L2.88031 10.208L4.83231 0.992H4.64031L3.04031 8.56L2.97631 8.864L2.88031 9.312L2.78431 8.864L2.68831 8.448L2.67231 8.384L2.25631 6.4L2.35231 6.384L2.44831 6.368L2.88031 8.416L4.49631 0.799999ZM5.89331 11.504C5.93598 11.4613 5.98931 11.44 6.05331 11.44C6.11731 11.44 6.17065 11.4613 6.21331 11.504C6.25598 11.5467 6.27731 11.6 6.27731 11.664C6.27731 11.728 6.25598 11.7813 6.21331 11.824C6.17065 11.8667 6.11731 11.888 6.05331 11.888C5.98931 11.888 5.93598 11.8667 5.89331 11.824C5.85065 11.7813 5.82931 11.728 5.82931 11.664C5.82931 11.6 5.85065 11.5467 5.89331 11.504Z" fill="white"/>
</svg>
